<svg xmlns="http://www.w3.org/2000/svg" viewBox="0 0 1000 1000"><path d="M920 797.5c0 9.3-8.2 17.5-17.5 17.5h-805c-9.3 0-17.5-8.2-17.5-17.5v-420c11.5 13.1 24.1 25.2 37.7 36.1 78.2 60.2 157 121.4 233 184.8 41 34.5 91.9 76.6 148.7 76.6h1c56.9 0 107.7-42.1 148.8-76.6 76-63.4 154.8-124.7 233-184.8 13.7-10.9 26.2-23 37.7-36.1l.1 420zm0-574.8c0 46.5-44.8 107.2-80.4 135.1-73.3 57.4-146.6 115.4-219.3 173.4-29 23.5-81.5 73.8-119.8 73.8h-1c-38.3 0-90.8-50.3-119.8-73.8-72.7-58-146-115.9-219.3-173.3C111.2 319 80 264.9 80 202.5c0-9.3 8.2-17.5 17.5-17.5h805c20.8 0 17.5 24.1 17.5 37.7zm70-20.2c0-48.1-39.4-87.5-87.5-87.5h-805C49.4 115 10 154.4 10 202.5v595c0 48.1 39.4 87.5 87.5 87.5h805c48.1 0 87.5-39.4 87.5-87.5v-595z"/></svg>