<svg xmlns="http://www.w3.org/2000/svg" width="612" height="612"><g fill="#fff"><path d="M140.734 433.628H81.651C128.112 524.382 222.539 586.5 331.5 586.5 486.412 586.5 612 460.912 612 306c0-154.913-125.588-280.5-280.5-280.5-137.496 0-251.889 98.94-275.884 229.5H0l76.5 102L153 255h-45.313C130.892 152.796 222.284 76.5 331.5 76.5 458.261 76.5 561 179.239 561 306S458.261 535.5 331.5 535.5c-79.509 0-149.583-40.443-190.766-101.872z"/><path d="M318.75 128.316v186.609l132.881 78.31 12.954-21.955-120.335-71.553V128.316z"/></g></svg>